<svg version="1.1" viewBox="0.0 0.0 960.0 540.0" fill="none" stroke="none" stroke-linecap="square" stroke-miterlimit="10" xmlns:xlink="http://www.w3.org/1999/xlink" xmlns="http://www.w3.org/2000/svg"><clipPath id="g316bc1eff2a_0_75.0"><path d="m0 0l960.0 0l0 540.0l-960.0 0l0 -540.0z" clip-rule="nonzero"/></clipPath><g clip-path="url(#g316bc1eff2a_0_75.0)"><path fill="#212529" d="m0 0l960.0 0l0 540.0l-960.0 0z" fill-rule="evenodd"/><path fill="#212529" d="m24.041994 118.21398l0 0c0 -38.173645 30.945852 -69.11949 69.11949 -69.11949l759.20984 0c18.331604 0 35.912415 7.2822113 48.874817 20.244629c12.962463 12.962418 20.244629 30.543236 20.244629 48.874863l0 276.46967c0 38.173645 -30.9458 69.11951 -69.119446 69.11951l-759.20984 0c-38.173637 0 -69.11949 -30.945862 -69.11949 -69.11951z" fill-rule="evenodd"/><path stroke="#212529" stroke-width="1.0" stroke-linejoin="round" stroke-linecap="butt" d="m24.041994 118.21398l0 0c0 -38.173645 30.945852 -69.11949 69.11949 -69.11949l759.20984 0c18.331604 0 35.912415 7.2822113 48.874817 20.244629c12.962463 12.962418 20.244629 30.543236 20.244629 48.874863l0 276.46967c0 38.173645 -30.9458 69.11951 -69.119446 69.11951l-759.20984 0c-38.173637 0 -69.11949 -30.945862 -69.11949 -69.11951z" fill-rule="evenodd"/><path fill="#adadad" d="m281.6646 302.32883l-27.39061 -84.359375l6.2656097 0l15.109375 49.28125q1.65625 5.25 3.0625 9.734375q1.421875 4.484375 2.828125 8.90625q1.40625 4.40625 3.0625 9.53125l0.515625 0q1.53125 -5.125 2.9375 -9.53125q1.421875 -4.421875 2.828125 -8.90625q1.40625 -4.484375 3.0625 -9.734375l16.12503 -49.28125l6.03125 0l-28.171906 84.359375l-6.265625 0zm46.723022 0l0 -61.4375l5.625 0l0 61.4375l-5.625 0zm2.6875 -76.28125q-2.046875 0 -3.453125 -1.46875q-1.40625 -1.484375 -1.40625 -3.78125q0 -2.3125 1.40625 -3.65625q1.40625 -1.34375 3.453125 -1.34375q2.171875 0 3.515625 1.34375q1.34375 1.34375 1.34375 3.65625q0 2.296875 -1.34375 3.78125q-1.34375 1.46875 -3.515625 1.46875zm49.015137 77.8125q-7.296875 0 -13.640625 -3.765625q-6.328125 -3.78125 -10.109375 -11.015625q-3.765625 -7.234375 -3.765625 -17.34375q0 -10.234375 3.765625 -17.53125q3.78125 -7.296875 10.109375 -11.0625q6.34375 -3.78125 13.640625 -3.78125q7.421875 0 13.6875 3.78125q6.28125 3.765625 10.125 11.0625q3.84375 7.296875 3.84375 17.53125q0 10.109375 -3.84375 17.34375q-3.84375 7.234375 -10.125 11.015625q-6.265625 3.765625 -13.6875 3.765625zm0 -4.984375q6.28125 0 11.203125 -3.390625q4.921875 -3.390625 7.734375 -9.53125q2.828125 -6.15625 2.828125 -14.21875q0 -8.0625 -2.828125 -14.265625q-2.8125 -6.21875 -7.734375 -9.671875q-4.921875 -3.453125 -11.203125 -3.453125q-6.140625 0 -11.015625 3.453125q-4.859375 3.453125 -7.734375 9.671875q-2.875 6.203125 -2.875 14.265625q0 8.0625 2.875 14.21875q2.875 6.140625 7.734375 9.53125q4.875 3.390625 11.015625 3.390625zm53.63626 4.484375q-2.5625 0 -4.234375 -1.03125q-1.65625 -1.03125 -2.484375 -3.203125q-0.828125 -2.171875 -0.828125 -5.5l0 -83.328125l5.625 0l0 84.09375q0 2.171875 0.828125 3.078125q0.84375 0.890625 2.125 0.890625q0.375 0 0.8125 -0.0625q0.453125 -0.0625 1.234375 -0.1875l1.015625 4.46875q-0.890625 0.390625 -1.859375 0.578125q-0.953125 0.203125 -2.234375 0.203125zm46.086 0.5q-7.9375 0 -14.34375 -3.828125q-6.390625 -3.84375 -10.234375 -11.078125q-3.84375 -7.234375 -3.84375 -17.21875q0 -10.109375 3.84375 -17.34375q3.84375 -7.234375 9.921875 -11.125q6.078125 -3.90625 12.984375 -3.90625q7.296875 0 12.609375 3.328125q5.3125 3.328125 8.125 9.671875q2.8125 6.328125 2.8125 15.40625q0 1.03125 -0.0625 2.25q-0.0625 1.203125 -0.3125 2.484375l-46.46875 0l0 -4.859375l41.46875 0q0 -11.78125 -4.859375 -17.59375q-4.859375 -5.828125 -13.1875 -5.828125q-5.109375 0 -9.984375 2.953125q-4.859375 2.9375 -8.0 9.015625q-3.125 6.078125 -3.125 15.296875q0 8.4375 3.0625 14.65625q3.078125 6.203125 8.328125 9.46875q5.25 3.265625 11.765625 3.265625q5.0 0 9.15625 -1.34375q4.15625 -1.34375 7.359375 -3.65625l2.3125 3.96875q-3.59375 2.4375 -8.078125 4.234375q-4.46875 1.78125 -11.25 1.78125zm38.52713 -1.53125l0 -61.4375l4.859375 0l0.515625 9.46875l0.375 0q4.734375 -4.734375 9.796875 -7.859375q5.0625 -3.140625 11.328125 -3.140625q9.59375 0 14.078064 5.828125q4.484375 5.8125 4.484375 17.71875l0 39.421875l-5.640625 0l0 -38.65625q0 -9.859375 -3.265564 -14.53125q-3.25 -4.671875 -10.8125 -4.671875q-5.5 0 -9.921875 2.890625q-4.40625 2.875 -10.171875 8.625l0 46.34375l-5.625 0zm90.87726 1.53125q-7.9375 0 -14.28125 -3.765625q-6.328125 -3.78125 -9.984375 -11.015625q-3.640625 -7.234375 -3.640625 -17.34375q0 -10.234375 3.90625 -17.53125q3.90625 -7.296875 10.296875 -11.0625q6.40625 -3.78125 13.828125 -3.78125q6.40625 0 10.625 2.109375q4.21875 2.109375 7.421875 5.4375l-3.078125 3.453125q-2.6875 -2.8125 -6.40625 -4.40625q-3.703125 -1.609375 -8.4375 -1.609375q-6.265625 0 -11.265625 3.453125q-4.984375 3.453125 -8.0 9.609375q-3.0 6.140625 -3.0 14.328125q0 8.0625 2.75 14.21875q2.75 6.140625 7.734375 9.53125q5.0 3.390625 11.78125 3.390625q5.0 0 9.21875 -1.859375q4.21875 -1.859375 7.171875 -4.921875l2.9375 3.453125q-3.84375 3.703125 -8.703125 6.015625q-4.859375 2.296875 -10.875 2.296875zm55.811646 0q-7.9375 0 -14.34375 -3.828125q-6.390625 -3.84375 -10.234375 -11.078125q-3.84375 -7.234375 -3.84375 -17.21875q0 -10.109375 3.84375 -17.34375q3.84375 -7.234375 9.921875 -11.125q6.078125 -3.90625 12.984375 -3.90625q7.296875 0 12.609375 3.328125q5.3125 3.328125 8.125 9.671875q2.8125 6.328125 2.8125 15.40625q0 1.03125 -0.0625 2.25q-0.0625 1.203125 -0.3125 2.484375l-46.46875 0l0 -4.859375l41.46875 0q0 -11.78125 -4.859375 -17.59375q-4.859375 -5.828125 -13.1875 -5.828125q-5.109375 0 -9.984375 2.953125q-4.859375 2.9375 -8.0 9.015625q-3.125 6.078125 -3.125 15.296875q0 8.4375 3.0625 14.65625q3.078125 6.203125 8.328125 9.46875q5.25 3.265625 11.765625 3.265625q5.0 0 9.15625 -1.34375q4.15625 -1.34375 7.359375 -3.65625l2.3125 3.96875q-3.59375 2.4375 -8.078125 4.234375q-4.46875 1.78125 -11.25 1.78125z" fill-rule="nonzero"/></g></svg>